<?xml version="1.0" encoding="UTF-8" standalone="no"?>
<!DOCTYPE svg PUBLIC "-//W3C//DTD SVG 1.1//EN"
 "http://www.w3.org/Graphics/SVG/1.1/DTD/svg11.dtd">
<!-- Generated by graphviz version 2.36.0 (20140111.2315)
 -->
<!-- Title: G Pages: 1 -->
<svg width="848pt" height="446pt"
 viewBox="0.00 0.00 848.00 446.00" xmlns="http://www.w3.org/2000/svg" xmlns:xlink="http://www.w3.org/1999/xlink">
<g id="graph0" class="graph" transform="scale(1 1) rotate(0) translate(4 442)">
<title>G</title>
<polygon fill="white" stroke="none" points="-4,4 -4,-442 844,-442 844,4 -4,4"/>
<g id="clust1" class="cluster"><title>clusterApp</title>
<polygon fill="none" stroke="black" points="8,-128 8,-430 138,-430 138,-128 8,-128"/>
<text text-anchor="middle" x="73" y="-414.8" font-family="Times,serif" font-size="14.00">Application</text>
</g>
<g id="clust2" class="cluster"><title>clusteroFHeaders</title>
<polygon fill="none" stroke="steelblue" points="663,-128 663,-202 832,-202 832,-128 663,-128"/>
<text text-anchor="middle" x="747.5" y="-186.8" font-family="Times,serif" font-size="14.00" fill="steelblue">../../../libs/openFrameworks</text>
</g>
<g id="clust3" class="cluster"><title>clusterIFs</title>
<polygon fill="none" stroke="steelblue" points="146,-128 146,-202 542,-202 542,-128 146,-128"/>
<text text-anchor="middle" x="344" y="-186.8" font-family="Times,serif" font-size="14.00" fill="steelblue">src/DynamicLibs/Interfaces</text>
</g>
<g id="clust4" class="cluster"><title>clusterLibs</title>
<polygon fill="none" stroke="steelblue" points="372,-250 372,-324 647,-324 647,-250 372,-250"/>
<text text-anchor="middle" x="509.5" y="-308.8" font-family="Times,serif" font-size="14.00" fill="steelblue">src/DynamicLibs/Libs</text>
</g>
<g id="clust5" class="cluster"><title>clusterData</title>
<polygon fill="none" stroke="steelblue" points="55,-8 55,-82 447,-82 447,-8 55,-8"/>
<text text-anchor="middle" x="251" y="-66.8" font-family="Times,serif" font-size="14.00" fill="steelblue">bin/data</text>
</g>
<!-- openFrameworks -->
<g id="node1" class="node"><title>openFrameworks</title>
<polygon fill="none" stroke="black" points="129.4,-400 16.6002,-400 16.6002,-364 129.4,-364 129.4,-400"/>
<text text-anchor="middle" x="73" y="-377.8" font-family="Times,serif" font-size="14.00">openFrameworks</text>
</g>
<!-- MyLibs -->
<g id="node2" class="node"><title>MyLibs</title>
<polygon fill="none" stroke="black" points="15.7759,-243 15.7759,-309 130.224,-309 130.224,-243 15.7759,-243"/>
<text text-anchor="middle" x="45.9448" y="-271.8" font-family="Times,serif" font-size="14.00">MyLibs</text>
<polyline fill="none" stroke="black" points="76.1138,-243 76.1138,-309 "/>
<text text-anchor="middle" x="103.169" y="-293.8" font-family="Times,serif" font-size="14.00">*stuff</text>
<polyline fill="none" stroke="black" points="76.1138,-287 130.224,-287 "/>
<text text-anchor="middle" x="103.169" y="-271.8" font-family="Times,serif" font-size="14.00">*cam</text>
<polyline fill="none" stroke="black" points="76.1138,-265 130.224,-265 "/>
<text text-anchor="middle" x="103.169" y="-249.8" font-family="Times,serif" font-size="14.00">*yours</text>
</g>
<!-- openFrameworks&#45;&gt;MyLibs -->
<g id="edge9" class="edge"><title>openFrameworks&#45;&gt;MyLibs</title>
<path fill="none" stroke="black" d="M73,-363.827C73,-351.711 73,-334.927 73,-319.343"/>
<polygon fill="black" stroke="black" points="76.5001,-319.336 73,-309.336 69.5001,-319.336 76.5001,-319.336"/>
<text text-anchor="middle" x="83.1035" y="-334.8" font-family="Times,serif" font-size="14.00">call</text>
</g>
<!-- oFHeaders -->
<g id="node4" class="node"><title>oFHeaders</title>
<polygon fill="#e5e5e5" stroke="none" points="752.111,-172 671.889,-172 671.889,-136 752.111,-136 752.111,-172"/>
<text text-anchor="middle" x="712" y="-149.8" font-family="Times,serif" font-size="14.00">oF Headers</text>
</g>
<!-- openFrameworks&#45;&gt;oFHeaders -->
<g id="edge8" class="edge"><title>openFrameworks&#45;&gt;oFHeaders</title>
<path fill="none" stroke="goldenrod" d="M137.606,-378.48C279.948,-372.383 611.161,-355.006 651,-324 685.257,-297.339 700.295,-249.723 706.887,-211.813"/>
<polygon fill="goldenrod" stroke="goldenrod" points="710.348,-212.33 708.459,-201.905 703.435,-211.232 710.348,-212.33"/>
<text text-anchor="middle" x="723.104" y="-271.8" font-family="Times,serif" font-size="14.00" fill="goldenrod">#include</text>
</g>
<!-- DynamicLibs -->
<g id="node3" class="node"><title>DynamicLibs</title>
<polygon fill="none" stroke="black" points="125.155,-172 32.8446,-172 32.8446,-136 125.155,-136 125.155,-172"/>
<text text-anchor="middle" x="79" y="-149.8" font-family="Times,serif" font-size="14.00">DynamicLibs</text>
</g>
<!-- MyLibs&#45;&gt;DynamicLibs -->
<g id="edge1" class="edge"><title>MyLibs&#45;&gt;DynamicLibs</title>
<path fill="none" stroke="black" d="M74.6079,-242.842C75.5552,-223.896 76.7405,-200.19 77.6409,-182.182"/>
<polygon fill="black" stroke="black" points="81.1433,-182.22 78.1471,-172.058 74.152,-181.87 81.1433,-182.22"/>
<text text-anchor="middle" x="94.4897" y="-212.8" font-family="Times,serif" font-size="14.00">derive</text>
</g>
<!-- YourInterface -->
<g id="node5" class="node"><title>YourInterface</title>
<polygon fill="none" stroke="#b3b3b3" stroke-dasharray="5,2" points="533.209,-172 430.791,-172 430.791,-136 533.209,-136 533.209,-172"/>
<text text-anchor="middle" x="482" y="-149.8" font-family="Times,serif" font-size="14.00">YourInterface.h</text>
</g>
<!-- MyLibs&#45;&gt;YourInterface -->
<g id="edge3" class="edge"><title>MyLibs:3&#45;&gt;YourInterface</title>
<path fill="none" stroke="goldenrod" d="M131,-254C196.472,-254 361.137,-228.515 421,-202 433.828,-196.318 446.39,-187.396 456.748,-178.846"/>
<polygon fill="goldenrod" stroke="goldenrod" points="459.248,-181.312 464.545,-172.137 454.682,-176.006 459.248,-181.312"/>
</g>
<!-- YoursL -->
<g id="node11" class="node"><title>YoursL</title>
<polygon fill="none" stroke="black" stroke-dasharray="5,2" points="439.181,-26.5442 439.181,-41.4558 406.857,-52 361.143,-52 328.819,-41.4558 328.819,-26.5442 361.143,-16 406.857,-16 439.181,-26.5442"/>
<text text-anchor="middle" x="384" y="-29.8" font-family="Times,serif" font-size="14.00">Yours.dylib</text>
</g>
<!-- DynamicLibs&#45;&gt;YoursL -->
<g id="edge2" class="edge"><title>DynamicLibs&#45;&gt;YoursL</title>
<path fill="none" stroke="black" d="M119.737,-135.986C127.09,-133.159 134.73,-130.377 142,-128 219.255,-102.74 245.467,-116.632 319,-82 332.152,-75.806 345.386,-66.8483 356.448,-58.4108"/>
<polygon fill="black" stroke="black" points="358.754,-61.0499 364.447,-52.1144 354.424,-55.5495 358.754,-61.0499"/>
<text text-anchor="middle" x="329.886" y="-99.8" font-family="Times,serif" font-size="14.00">load &amp; link</text>
</g>
<!-- GeneralInterface -->
<g id="node6" class="node"><title>GeneralInterface</title>
<polygon fill="#e5e5e5" stroke="none" points="411.903,-172 292.097,-172 292.097,-136 411.903,-136 411.903,-172"/>
<text text-anchor="middle" x="352" y="-149.8" font-family="Times,serif" font-size="14.00">GeneralInterface.h</text>
</g>
<!-- CameraInterface -->
<g id="node7" class="node"><title>CameraInterface</title>
<polygon fill="#e5e5e5" stroke="none" points="273.323,-172 154.677,-172 154.677,-136 273.323,-136 273.323,-172"/>
<text text-anchor="middle" x="214" y="-149.8" font-family="Times,serif" font-size="14.00">CameraInterface.h</text>
</g>
<!-- Yours -->
<g id="node8" class="node"><title>Yours</title>
<polygon fill="none" stroke="#b3b3b3" stroke-dasharray="5,2" points="638.907,-294 567.093,-294 567.093,-258 638.907,-258 638.907,-294"/>
<text text-anchor="middle" x="603" y="-271.8" font-family="Times,serif" font-size="14.00">Yours.cpp</text>
</g>
<!-- Yours&#45;&gt;oFHeaders -->
<g id="edge5" class="edge"><title>Yours&#45;&gt;oFHeaders</title>
<path fill="none" stroke="goldenrod" d="M618.617,-257.807C630.198,-245.058 646.666,-226.927 662.556,-209.434"/>
<polygon fill="goldenrod" stroke="goldenrod" points="665.182,-211.749 669.315,-201.993 660,-207.042 665.182,-211.749"/>
</g>
<!-- Yours&#45;&gt;YourInterface -->
<g id="edge4" class="edge"><title>Yours&#45;&gt;YourInterface</title>
<path fill="none" stroke="goldenrod" d="M585.664,-257.807C564.908,-237.223 530.009,-202.613 506.503,-179.301"/>
<polygon fill="goldenrod" stroke="goldenrod" points="508.869,-176.718 499.304,-172.161 503.94,-181.688 508.869,-176.718"/>
</g>
<!-- CompileScript -->
<g id="node14" class="node"><title>CompileScript</title>
<polygon fill="steelblue" stroke="none" points="653.451,-172 552.549,-172 552.549,-136 653.451,-136 653.451,-172"/>
<text text-anchor="middle" x="603" y="-149.8" font-family="Times,serif" font-size="14.00" fill="white">compile&#45;libs.sh</text>
</g>
<!-- Yours&#45;&gt;CompileScript -->
<g id="edge6" class="edge"><title>Yours&#45;&gt;CompileScript</title>
<path fill="none" stroke="steelblue" d="M603,-250.39C603,-230.618 603,-202.865 603,-182.39"/>
<polygon fill="steelblue" stroke="steelblue" points="606.5,-182.161 603,-172.161 599.5,-182.161 606.5,-182.161"/>
</g>
<!-- Stuff -->
<g id="node9" class="node"><title>Stuff</title>
<polygon fill="#e5e5e5" stroke="none" points="548.6,-294 481.4,-294 481.4,-258 548.6,-258 548.6,-294"/>
<text text-anchor="middle" x="515" y="-271.8" font-family="Times,serif" font-size="14.00">Stuff.cpp</text>
</g>
<!-- Camera -->
<g id="node10" class="node"><title>Camera</title>
<polygon fill="#e5e5e5" stroke="none" points="463.433,-294 380.567,-294 380.567,-258 463.433,-258 463.433,-294"/>
<text text-anchor="middle" x="422" y="-271.8" font-family="Times,serif" font-size="14.00">Camera.cpp</text>
</g>
<!-- StuffL -->
<g id="node12" class="node"><title>StuffL</title>
<polygon fill="none" stroke="black" points="310.478,-26.5442 310.478,-41.4558 280.323,-52 237.677,-52 207.522,-41.4558 207.522,-26.5442 237.677,-16 280.323,-16 310.478,-26.5442"/>
<text text-anchor="middle" x="259" y="-29.8" font-family="Times,serif" font-size="14.00">Stuff.dylib</text>
</g>
<!-- CameraL -->
<g id="node13" class="node"><title>CameraL</title>
<polygon fill="none" stroke="black" points="188.161,-26.5442 188.161,-41.4558 151.748,-52 100.252,-52 63.8385,-41.4558 63.8385,-26.5442 100.252,-16 151.748,-16 188.161,-26.5442"/>
<text text-anchor="middle" x="126" y="-29.8" font-family="Times,serif" font-size="14.00">Camera.dylib</text>
</g>
<!-- CompileScript&#45;&gt;YoursL -->
<g id="edge7" class="edge"><title>CompileScript&#45;&gt;YoursL</title>
<path fill="none" stroke="steelblue" d="M571.156,-135.842C541.083,-119.639 494.912,-94.7608 455.954,-73.7699"/>
<polygon fill="steelblue" stroke="steelblue" points="457.2,-70.4652 446.736,-68.8029 453.879,-76.6276 457.2,-70.4652"/>
<text text-anchor="middle" x="565.438" y="-106.8" font-family="Times,serif" font-size="14.00" fill="steelblue">continuous</text>
<text text-anchor="middle" x="565.438" y="-92.8" font-family="Times,serif" font-size="14.00" fill="steelblue">compilation</text>
</g>
</g>
</svg>
