<?xml version="1.0" encoding="UTF-8" standalone="no"?>
<!DOCTYPE svg PUBLIC "-//W3C//DTD SVG 1.1//EN"
 "http://www.w3.org/Graphics/SVG/1.1/DTD/svg11.dtd">
<!-- Generated by graphviz version 2.38.0 (20140413.2041)
 -->
<!-- Title: G Pages: 1 -->
<svg width="842pt" height="455pt"
 viewBox="0.00 0.00 842.00 455.00" xmlns="http://www.w3.org/2000/svg" xmlns:xlink="http://www.w3.org/1999/xlink">
<g id="graph0" class="graph" transform="scale(1 1) rotate(0) translate(4 451)">
<title>G</title>
<polygon fill="white" stroke="none" points="-4,4 -4,-451 838,-451 838,4 -4,4"/>
<g id="clust1" class="cluster"><title>clusterApp</title>
<polygon fill="none" stroke="black" points="8,-131 8,-439 138,-439 138,-131 8,-131"/>
<text text-anchor="middle" x="73" y="-423.8" font-family="Times,serif" font-size="14.00">Application</text>
</g>
<g id="clust2" class="cluster"><title>clusteroFHeaders</title>
<polygon fill="none" stroke="steelblue" points="658,-131 658,-206 826,-206 826,-131 658,-131"/>
<text text-anchor="middle" x="742" y="-190.8" font-family="Times,serif" font-size="14.00" fill="steelblue">../../../libs/openFrameworks</text>
</g>
<g id="clust3" class="cluster"><title>clusterIFs</title>
<polygon fill="none" stroke="steelblue" points="146,-131 146,-206 538,-206 538,-131 146,-131"/>
<text text-anchor="middle" x="342" y="-190.8" font-family="Times,serif" font-size="14.00" fill="steelblue">src/DynamicLibs/Interfaces</text>
</g>
<g id="clust4" class="cluster"><title>clusterLibs</title>
<polygon fill="none" stroke="steelblue" points="367,-256 367,-331 643,-331 643,-256 367,-256"/>
<text text-anchor="middle" x="505" y="-315.8" font-family="Times,serif" font-size="14.00" fill="steelblue">src/DynamicLibs/Libraries</text>
</g>
<g id="clust5" class="cluster"><title>clusterData</title>
<polygon fill="none" stroke="steelblue" points="48,-8 48,-83 448,-83 448,-8 48,-8"/>
<text text-anchor="middle" x="248" y="-67.8" font-family="Times,serif" font-size="14.00" fill="steelblue">bin/data</text>
</g>
<!-- openFrameworks -->
<g id="node1" class="node"><title>openFrameworks</title>
<polygon fill="none" stroke="black" points="129.5,-408 18.5,-408 18.5,-372 129.5,-372 129.5,-408"/>
<text text-anchor="middle" x="74" y="-386.3" font-family="Times,serif" font-size="14.00">openFrameworks</text>
</g>
<!-- MyLibs -->
<g id="node2" class="node"><title>MyLibs</title>
<polygon fill="none" stroke="black" points="16.5,-247.5 16.5,-316.5 129.5,-316.5 129.5,-247.5 16.5,-247.5"/>
<text text-anchor="middle" x="46.5" y="-278.3" font-family="Times,serif" font-size="14.00">MyLibs</text>
<polyline fill="none" stroke="black" points="76.5,-247.5 76.5,-316.5 "/>
<text text-anchor="middle" x="103" y="-301.3" font-family="Times,serif" font-size="14.00">*stuff</text>
<polyline fill="none" stroke="black" points="76.5,-293.5 129.5,-293.5 "/>
<text text-anchor="middle" x="103" y="-278.3" font-family="Times,serif" font-size="14.00">*cam</text>
<polyline fill="none" stroke="black" points="76.5,-270.5 129.5,-270.5 "/>
<text text-anchor="middle" x="103" y="-255.3" font-family="Times,serif" font-size="14.00">*yours</text>
</g>
<!-- openFrameworks&#45;&gt;MyLibs -->
<g id="edge9" class="edge"><title>openFrameworks&#45;&gt;MyLibs</title>
<path fill="none" stroke="black" d="M73.8393,-371.969C73.7243,-359.775 73.5639,-342.772 73.4141,-326.893"/>
<polygon fill="black" stroke="black" points="76.912,-326.649 73.3178,-316.682 69.9123,-326.715 76.912,-326.649"/>
<text text-anchor="middle" x="84" y="-342.8" font-family="Times,serif" font-size="14.00">call</text>
</g>
<!-- oFHeaders -->
<g id="node4" class="node"><title>oFHeaders</title>
<polygon fill="#e5e5e5" stroke="none" points="745.5,-175 666.5,-175 666.5,-139 745.5,-139 745.5,-175"/>
<text text-anchor="middle" x="706" y="-153.3" font-family="Times,serif" font-size="14.00">oF Headers</text>
</g>
<!-- openFrameworks&#45;&gt;oFHeaders -->
<g id="edge8" class="edge"><title>openFrameworks&#45;&gt;oFHeaders</title>
<path fill="none" stroke="goldenrod" d="M137.669,-386.397C278.635,-380.091 607.77,-362.176 647,-331 681.65,-303.464 696.057,-254.582 701.993,-215.787"/>
<polygon fill="goldenrod" stroke="goldenrod" points="705.492,-216.035 703.39,-205.65 698.558,-215.079 705.492,-216.035"/>
<text text-anchor="middle" x="718.5" y="-278.3" font-family="Times,serif" font-size="14.00" fill="goldenrod">#include</text>
</g>
<!-- DynamicLibs -->
<g id="node3" class="node"><title>DynamicLibs</title>
<polygon fill="none" stroke="black" points="124.5,-175 33.5,-175 33.5,-139 124.5,-139 124.5,-175"/>
<text text-anchor="middle" x="79" y="-153.3" font-family="Times,serif" font-size="14.00">DynamicLibs</text>
</g>
<!-- MyLibs&#45;&gt;DynamicLibs -->
<g id="edge1" class="edge"><title>MyLibs&#45;&gt;DynamicLibs</title>
<path fill="none" stroke="black" d="M74.6395,-247.39C75.5909,-227.887 76.7738,-203.637 77.6674,-185.317"/>
<polygon fill="black" stroke="black" points="81.1648,-185.456 78.1562,-175.297 74.1731,-185.115 81.1648,-185.456"/>
<text text-anchor="middle" x="94" y="-217.8" font-family="Times,serif" font-size="14.00">derive</text>
</g>
<!-- YourInterface -->
<g id="node5" class="node"><title>YourInterface</title>
<polygon fill="none" stroke="#b3b3b3" stroke-dasharray="5,2" points="529.5,-175 426.5,-175 426.5,-139 529.5,-139 529.5,-175"/>
<text text-anchor="middle" x="478" y="-153.3" font-family="Times,serif" font-size="14.00">YourInterface.h</text>
</g>
<!-- MyLibs&#45;&gt;YourInterface -->
<g id="edge3" class="edge"><title>MyLibs:3&#45;&gt;YourInterface</title>
<path fill="none" stroke="goldenrod" d="M131,-259C195.638,-259 358.112,-232.649 417,-206 430.208,-200.023 443.087,-190.593 453.581,-181.668"/>
<polygon fill="goldenrod" stroke="goldenrod" points="455.939,-184.255 461.108,-175.006 451.3,-179.013 455.939,-184.255"/>
</g>
<!-- YoursL -->
<g id="node11" class="node"><title>YoursL</title>
<polygon fill="none" stroke="black" stroke-dasharray="5,2" points="439.966,-26.5442 439.966,-41.4558 406.596,-52 359.404,-52 326.034,-41.4558 326.034,-26.5442 359.404,-16 406.596,-16 439.966,-26.5442"/>
<text text-anchor="middle" x="383" y="-30.3" font-family="Times,serif" font-size="14.00">Yours.dylib</text>
</g>
<!-- DynamicLibs&#45;&gt;YoursL -->
<g id="edge2" class="edge"><title>DynamicLibs&#45;&gt;YoursL</title>
<path fill="none" stroke="black" d="M120.104,-138.937C127.349,-136.145 134.858,-133.389 142,-131 218.487,-105.421 244.317,-117.953 317,-83 330.431,-76.5411 343.967,-67.2862 355.255,-58.6234"/>
<polygon fill="black" stroke="black" points="357.74,-61.1205 363.409,-52.1704 353.396,-55.6313 357.74,-61.1205"/>
<text text-anchor="middle" x="328" y="-102.3" font-family="Times,serif" font-size="14.00">load &amp; link</text>
</g>
<!-- GeneralInterface -->
<g id="node6" class="node"><title>GeneralInterface</title>
<polygon fill="#e5e5e5" stroke="none" points="408,-175 290,-175 290,-139 408,-139 408,-175"/>
<text text-anchor="middle" x="349" y="-153.3" font-family="Times,serif" font-size="14.00">GeneralInterface.h</text>
</g>
<!-- CameraInterface -->
<g id="node7" class="node"><title>CameraInterface</title>
<polygon fill="#e5e5e5" stroke="none" points="272,-175 154,-175 154,-139 272,-139 272,-175"/>
<text text-anchor="middle" x="213" y="-153.3" font-family="Times,serif" font-size="14.00">CameraInterface.h</text>
</g>
<!-- Yours -->
<g id="node8" class="node"><title>Yours</title>
<polygon fill="none" stroke="#b3b3b3" stroke-dasharray="5,2" points="634.5,-300 561.5,-300 561.5,-264 634.5,-264 634.5,-300"/>
<text text-anchor="middle" x="598" y="-278.3" font-family="Times,serif" font-size="14.00">Yours.cpp</text>
</g>
<!-- Yours&#45;&gt;oFHeaders -->
<g id="edge5" class="edge"><title>Yours&#45;&gt;oFHeaders</title>
<path fill="none" stroke="goldenrod" d="M613.017,-263.897C624.61,-250.694 641.336,-231.645 657.416,-213.332"/>
<polygon fill="goldenrod" stroke="goldenrod" points="660.282,-215.372 664.25,-205.548 655.022,-210.753 660.282,-215.372"/>
</g>
<!-- Yours&#45;&gt;YourInterface -->
<g id="edge4" class="edge"><title>Yours&#45;&gt;YourInterface</title>
<path fill="none" stroke="goldenrod" d="M581.315,-263.897C560.743,-242.812 525.627,-206.817 502.121,-182.724"/>
<polygon fill="goldenrod" stroke="goldenrod" points="504.419,-180.068 494.931,-175.354 499.409,-184.956 504.419,-180.068"/>
</g>
<!-- CompileScript -->
<g id="node14" class="node"><title>CompileScript</title>
<polygon fill="steelblue" stroke="none" points="648.5,-175 547.5,-175 547.5,-139 648.5,-139 648.5,-175"/>
<text text-anchor="middle" x="598" y="-153.3" font-family="Times,serif" font-size="14.00" fill="white">compile&#45;libs.sh</text>
</g>
<!-- Yours&#45;&gt;CompileScript -->
<g id="edge6" class="edge"><title>Yours&#45;&gt;CompileScript</title>
<path fill="none" stroke="steelblue" d="M598,-256.244C598,-235.794 598,-206.786 598,-185.593"/>
<polygon fill="steelblue" stroke="steelblue" points="601.5,-185.354 598,-175.354 594.5,-185.354 601.5,-185.354"/>
</g>
<!-- Stuff -->
<g id="node9" class="node"><title>Stuff</title>
<polygon fill="#e5e5e5" stroke="none" points="543.5,-300 476.5,-300 476.5,-264 543.5,-264 543.5,-300"/>
<text text-anchor="middle" x="510" y="-278.3" font-family="Times,serif" font-size="14.00">Stuff.cpp</text>
</g>
<!-- Camera -->
<g id="node10" class="node"><title>Camera</title>
<polygon fill="#e5e5e5" stroke="none" points="458.5,-300 375.5,-300 375.5,-264 458.5,-264 458.5,-300"/>
<text text-anchor="middle" x="417" y="-278.3" font-family="Times,serif" font-size="14.00">Camera.cpp</text>
</g>
<!-- StuffL -->
<g id="node12" class="node"><title>StuffL</title>
<polygon fill="none" stroke="black" points="307.525,-26.5442 307.525,-41.4558 276.757,-52 233.243,-52 202.475,-41.4558 202.475,-26.5442 233.243,-16 276.757,-16 307.525,-26.5442"/>
<text text-anchor="middle" x="255" y="-30.3" font-family="Times,serif" font-size="14.00">Stuff.dylib</text>
</g>
<!-- CameraL -->
<g id="node13" class="node"><title>CameraL</title>
<polygon fill="none" stroke="black" points="184.036,-26.5442 184.036,-41.4558 146.524,-52 93.4756,-52 55.9644,-41.4558 55.9644,-26.5442 93.4756,-16 146.524,-16 184.036,-26.5442"/>
<text text-anchor="middle" x="120" y="-30.3" font-family="Times,serif" font-size="14.00">Camera.dylib</text>
</g>
<!-- CompileScript&#45;&gt;YoursL -->
<g id="edge7" class="edge"><title>CompileScript&#45;&gt;YoursL</title>
<path fill="none" stroke="steelblue" d="M567.652,-138.92C538.941,-122.762 494.713,-97.871 456.74,-76.5001"/>
<polygon fill="steelblue" stroke="steelblue" points="458.17,-73.2889 447.739,-71.4344 454.737,-79.3891 458.17,-73.2889"/>
<text text-anchor="middle" x="567" y="-109.8" font-family="Times,serif" font-size="14.00" fill="steelblue">continuous</text>
<text text-anchor="middle" x="567" y="-94.8" font-family="Times,serif" font-size="14.00" fill="steelblue">compilation</text>
</g>
</g>
</svg>
