<?xml version="1.0" encoding="UTF-8" standalone="no"?>
<!DOCTYPE svg PUBLIC "-//W3C//DTD SVG 1.1//EN"
 "http://www.w3.org/Graphics/SVG/1.1/DTD/svg11.dtd">
<!-- Generated by graphviz version 2.36.0 (20140111.2315)
 -->
<!-- Title: G Pages: 1 -->
<svg width="726pt" height="435pt"
 viewBox="0.00 0.00 726.00 435.00" xmlns="http://www.w3.org/2000/svg" xmlns:xlink="http://www.w3.org/1999/xlink">
<g id="graph0" class="graph" transform="scale(1 1) rotate(0) translate(4 431)">
<title>G</title>
<polygon fill="white" stroke="none" points="-4,4 -4,-431 722,-431 722,4 -4,4"/>
<g id="clust1" class="cluster"><title>clusterApp</title>
<polygon fill="none" stroke="black" points="8,-128 8,-419 138,-419 138,-128 8,-128"/>
<text text-anchor="middle" x="73" y="-403.8" font-family="Times,serif" font-size="14.00">Application</text>
</g>
<g id="clust2" class="cluster"><title>clusteroFHeaders</title>
<polygon fill="none" stroke="steelblue" points="541,-128 541,-202 710,-202 710,-128 541,-128"/>
<text text-anchor="middle" x="625.5" y="-186.8" font-family="Times,serif" font-size="14.00" fill="steelblue">../../../libs/openFrameworks</text>
</g>
<g id="clust3" class="cluster"><title>clusterIFs</title>
<polygon fill="none" stroke="steelblue" points="146,-128 146,-202 420,-202 420,-128 146,-128"/>
<text text-anchor="middle" x="283" y="-186.8" font-family="Times,serif" font-size="14.00" fill="steelblue">src/DynamicLibs/Interfaces</text>
</g>
<g id="clust4" class="cluster"><title>clusterLibs</title>
<polygon fill="none" stroke="steelblue" points="338,-239 338,-313 523,-313 523,-239 338,-239"/>
<text text-anchor="middle" x="430.5" y="-297.8" font-family="Times,serif" font-size="14.00" fill="steelblue">src/DynamicLibs/Libraries</text>
</g>
<g id="clust5" class="cluster"><title>clusterData</title>
<polygon fill="none" stroke="steelblue" points="96,-8 96,-82 360,-82 360,-8 96,-8"/>
<text text-anchor="middle" x="228" y="-66.8" font-family="Times,serif" font-size="14.00" fill="steelblue">bin/data</text>
</g>
<!-- openFrameworks -->
<g id="node1" class="node"><title>openFrameworks</title>
<polygon fill="none" stroke="black" points="129.4,-389 16.6002,-389 16.6002,-353 129.4,-353 129.4,-389"/>
<text text-anchor="middle" x="73" y="-366.8" font-family="Times,serif" font-size="14.00">openFrameworks</text>
</g>
<!-- MyLibs -->
<g id="node2" class="node"><title>MyLibs</title>
<polygon fill="none" stroke="black" points="21.623,-243 21.623,-287 130.377,-287 130.377,-243 21.623,-243"/>
<text text-anchor="middle" x="51.792" y="-260.8" font-family="Times,serif" font-size="14.00">MyLibs</text>
<polyline fill="none" stroke="black" points="81.9609,-243 81.9609,-287 "/>
<text text-anchor="middle" x="106.169" y="-271.8" font-family="Times,serif" font-size="14.00">*stuff</text>
<polyline fill="none" stroke="black" points="81.9609,-265 130.377,-265 "/>
<text text-anchor="middle" x="106.169" y="-249.8" font-family="Times,serif" font-size="14.00">*cam</text>
</g>
<!-- openFrameworks&#45;&gt;MyLibs -->
<g id="edge9" class="edge"><title>openFrameworks&#45;&gt;MyLibs</title>
<path fill="none" stroke="black" d="M73.4954,-352.827C73.9294,-337.779 74.5712,-315.532 75.0964,-297.324"/>
<polygon fill="black" stroke="black" points="78.5998,-297.252 75.3897,-287.156 71.6028,-297.051 78.5998,-297.252"/>
<text text-anchor="middle" x="85.1035" y="-323.8" font-family="Times,serif" font-size="14.00">call</text>
</g>
<!-- oFHeaders -->
<g id="node4" class="node"><title>oFHeaders</title>
<polygon fill="#e5e5e5" stroke="none" points="630.111,-172 549.889,-172 549.889,-136 630.111,-136 630.111,-172"/>
<text text-anchor="middle" x="590" y="-149.8" font-family="Times,serif" font-size="14.00">oF Headers</text>
</g>
<!-- openFrameworks&#45;&gt;oFHeaders -->
<g id="edge8" class="edge"><title>openFrameworks&#45;&gt;oFHeaders</title>
<path fill="none" stroke="goldenrod" d="M137.776,-369.766C248.411,-368.104 467.604,-358.921 527,-313 558.397,-288.726 574.191,-246.396 582.112,-211.657"/>
<polygon fill="goldenrod" stroke="goldenrod" points="585.591,-212.123 584.235,-201.616 578.742,-210.675 585.591,-212.123"/>
<text text-anchor="middle" x="598.104" y="-260.8" font-family="Times,serif" font-size="14.00" fill="goldenrod">#include</text>
</g>
<!-- DynamicLibs -->
<g id="node3" class="node"><title>DynamicLibs</title>
<polygon fill="none" stroke="black" points="126.155,-172 33.8446,-172 33.8446,-136 126.155,-136 126.155,-172"/>
<text text-anchor="middle" x="80" y="-149.8" font-family="Times,serif" font-size="14.00">DynamicLibs</text>
</g>
<!-- MyLibs&#45;&gt;DynamicLibs -->
<g id="edge1" class="edge"><title>MyLibs&#45;&gt;DynamicLibs</title>
<path fill="none" stroke="black" d="M76.7712,-242.984C77.4081,-225.63 78.3162,-200.883 79.0073,-182.052"/>
<polygon fill="black" stroke="black" points="82.5064,-182.138 79.3755,-172.016 75.5111,-181.881 82.5064,-182.138"/>
<text text-anchor="middle" x="95.4897" y="-212.8" font-family="Times,serif" font-size="14.00">derive</text>
</g>
<!-- GeneralInterface -->
<g id="node5" class="node"><title>GeneralInterface</title>
<polygon fill="#e5e5e5" stroke="none" points="411.903,-172 292.097,-172 292.097,-136 411.903,-136 411.903,-172"/>
<text text-anchor="middle" x="352" y="-149.8" font-family="Times,serif" font-size="14.00">GeneralInterface.h</text>
</g>
<!-- MyLibs&#45;&gt;GeneralInterface -->
<g id="edge3" class="edge"><title>MyLibs:0&#45;&gt;GeneralInterface</title>
<path fill="none" stroke="goldenrod" d="M131,-276C210.838,-276 289.17,-214.494 327.561,-179.185"/>
<polygon fill="goldenrod" stroke="goldenrod" points="330.236,-181.475 335.133,-172.08 325.446,-176.37 330.236,-181.475"/>
</g>
<!-- StuffL -->
<g id="node9" class="node"><title>StuffL</title>
<polygon fill="none" stroke="black" points="351.478,-26.5442 351.478,-41.4558 321.323,-52 278.677,-52 248.522,-41.4558 248.522,-26.5442 278.677,-16 321.323,-16 351.478,-26.5442"/>
<text text-anchor="middle" x="300" y="-29.8" font-family="Times,serif" font-size="14.00">Stuff.dylib</text>
</g>
<!-- DynamicLibs&#45;&gt;StuffL -->
<g id="edge2" class="edge"><title>DynamicLibs&#45;&gt;StuffL</title>
<path fill="none" stroke="black" d="M120.894,-135.871C160.41,-119.096 217.245,-94.3143 238,-82 249.641,-75.0933 261.669,-66.392 271.996,-58.3593"/>
<polygon fill="black" stroke="black" points="274.217,-61.0653 279.875,-52.1077 269.866,-55.5819 274.217,-61.0653"/>
<text text-anchor="middle" x="254.886" y="-99.8" font-family="Times,serif" font-size="14.00">load &amp; link</text>
</g>
<!-- CameraInterface -->
<g id="node6" class="node"><title>CameraInterface</title>
<polygon fill="#e5e5e5" stroke="none" points="273.323,-172 154.677,-172 154.677,-136 273.323,-136 273.323,-172"/>
<text text-anchor="middle" x="214" y="-149.8" font-family="Times,serif" font-size="14.00">CameraInterface.h</text>
</g>
<!-- Stuff -->
<g id="node7" class="node"><title>Stuff</title>
<polygon fill="#e5e5e5" stroke="none" points="514.6,-283 447.4,-283 447.4,-247 514.6,-247 514.6,-283"/>
<text text-anchor="middle" x="481" y="-260.8" font-family="Times,serif" font-size="14.00">Stuff.cpp</text>
</g>
<!-- Stuff&#45;&gt;oFHeaders -->
<g id="edge5" class="edge"><title>Stuff&#45;&gt;oFHeaders</title>
<path fill="none" stroke="goldenrod" d="M498.031,-246.969C508.405,-236.595 522.289,-222.711 536.119,-208.881"/>
<polygon fill="goldenrod" stroke="goldenrod" points="538.732,-211.218 543.328,-201.672 533.782,-206.268 538.732,-211.218"/>
</g>
<!-- Stuff&#45;&gt;GeneralInterface -->
<g id="edge4" class="edge"><title>Stuff&#45;&gt;GeneralInterface</title>
<path fill="none" stroke="goldenrod" d="M460.844,-246.969C439.198,-228.679 404.637,-199.476 380.277,-178.893"/>
<polygon fill="goldenrod" stroke="goldenrod" points="382.338,-176.052 372.44,-172.271 377.82,-181.399 382.338,-176.052"/>
</g>
<!-- CompileScript -->
<g id="node11" class="node"><title>CompileScript</title>
<polygon fill="steelblue" stroke="none" points="531.451,-172 430.549,-172 430.549,-136 531.451,-136 531.451,-172"/>
<text text-anchor="middle" x="481" y="-149.8" font-family="Times,serif" font-size="14.00" fill="white">compile&#45;libs.sh</text>
</g>
<!-- Stuff&#45;&gt;CompileScript -->
<g id="edge6" class="edge"><title>Stuff&#45;&gt;CompileScript</title>
<path fill="none" stroke="steelblue" d="M481,-239.158C481,-222.259 481,-199.891 481,-182.462"/>
<polygon fill="steelblue" stroke="steelblue" points="484.5,-182.271 481,-172.271 477.5,-182.271 484.5,-182.271"/>
</g>
<!-- Camera -->
<g id="node8" class="node"><title>Camera</title>
<polygon fill="#e5e5e5" stroke="none" points="429.433,-283 346.567,-283 346.567,-247 429.433,-247 429.433,-283"/>
<text text-anchor="middle" x="388" y="-260.8" font-family="Times,serif" font-size="14.00">Camera.cpp</text>
</g>
<!-- CameraL -->
<g id="node10" class="node"><title>CameraL</title>
<polygon fill="none" stroke="black" points="229.161,-26.5442 229.161,-41.4558 192.748,-52 141.252,-52 104.839,-41.4558 104.839,-26.5442 141.252,-16 192.748,-16 229.161,-26.5442"/>
<text text-anchor="middle" x="167" y="-29.8" font-family="Times,serif" font-size="14.00">Camera.dylib</text>
</g>
<!-- CompileScript&#45;&gt;StuffL -->
<g id="edge7" class="edge"><title>CompileScript&#45;&gt;StuffL</title>
<path fill="none" stroke="steelblue" d="M454.681,-135.842C432.047,-121.086 398.379,-99.1365 368.227,-79.4797"/>
<polygon fill="steelblue" stroke="steelblue" points="370.117,-76.5335 359.828,-74.0042 366.294,-82.3975 370.117,-76.5335"/>
<text text-anchor="middle" x="455.438" y="-106.8" font-family="Times,serif" font-size="14.00" fill="steelblue">continuous</text>
<text text-anchor="middle" x="455.438" y="-92.8" font-family="Times,serif" font-size="14.00" fill="steelblue">compilation</text>
</g>
</g>
</svg>
