<?xml version="1.0" encoding="UTF-8" standalone="no"?>
<!DOCTYPE svg PUBLIC "-//W3C//DTD SVG 1.1//EN"
 "http://www.w3.org/Graphics/SVG/1.1/DTD/svg11.dtd">
<!-- Generated by graphviz version 2.38.0 (20140413.2041)
 -->
<!-- Title: G Pages: 1 -->
<svg width="717pt" height="444pt"
 viewBox="0.00 0.00 717.00 443.50" xmlns="http://www.w3.org/2000/svg" xmlns:xlink="http://www.w3.org/1999/xlink">
<g id="graph0" class="graph" transform="scale(1 1) rotate(0) translate(4 439.5)">
<title>G</title>
<polygon fill="white" stroke="none" points="-4,4 -4,-439.5 713,-439.5 713,4 -4,4"/>
<g id="clust1" class="cluster"><title>clusterApp</title>
<polygon fill="none" stroke="black" points="8,-131 8,-427.5 134,-427.5 134,-131 8,-131"/>
<text text-anchor="middle" x="71" y="-412.3" font-family="Times,serif" font-size="14.00">Application</text>
</g>
<g id="clust2" class="cluster"><title>clusteroFHeaders</title>
<polygon fill="none" stroke="steelblue" points="533,-131 533,-206 701,-206 701,-131 533,-131"/>
<text text-anchor="middle" x="617" y="-190.8" font-family="Times,serif" font-size="14.00" fill="steelblue">../../../libs/openFrameworks</text>
</g>
<g id="clust3" class="cluster"><title>clusterIFs</title>
<polygon fill="none" stroke="steelblue" points="142,-131 142,-206 412,-206 412,-131 142,-131"/>
<text text-anchor="middle" x="277" y="-190.8" font-family="Times,serif" font-size="14.00" fill="steelblue">src/DynamicLibs/Interfaces</text>
</g>
<g id="clust4" class="cluster"><title>clusterLibs</title>
<polygon fill="none" stroke="steelblue" points="330,-244.5 330,-319.5 515,-319.5 515,-244.5 330,-244.5"/>
<text text-anchor="middle" x="422.5" y="-304.3" font-family="Times,serif" font-size="14.00" fill="steelblue">src/DynamicLibs/Libraries</text>
</g>
<g id="clust5" class="cluster"><title>clusterData</title>
<polygon fill="none" stroke="steelblue" points="88,-8 88,-83 356,-83 356,-8 88,-8"/>
<text text-anchor="middle" x="222" y="-67.8" font-family="Times,serif" font-size="14.00" fill="steelblue">bin/data</text>
</g>
<!-- openFrameworks -->
<g id="node1" class="node"><title>openFrameworks</title>
<polygon fill="none" stroke="black" points="126.5,-396.5 15.5,-396.5 15.5,-360.5 126.5,-360.5 126.5,-396.5"/>
<text text-anchor="middle" x="71" y="-374.8" font-family="Times,serif" font-size="14.00">openFrameworks</text>
</g>
<!-- MyLibs -->
<g id="node2" class="node"><title>MyLibs</title>
<polygon fill="none" stroke="black" points="18,-247.5 18,-293.5 126,-293.5 126,-247.5 18,-247.5"/>
<text text-anchor="middle" x="48" y="-266.8" font-family="Times,serif" font-size="14.00">MyLibs</text>
<polyline fill="none" stroke="black" points="78,-247.5 78,-293.5 "/>
<text text-anchor="middle" x="102" y="-278.3" font-family="Times,serif" font-size="14.00">*stuff</text>
<polyline fill="none" stroke="black" points="78,-270.5 126,-270.5 "/>
<text text-anchor="middle" x="102" y="-255.3" font-family="Times,serif" font-size="14.00">*cam</text>
</g>
<!-- openFrameworks&#45;&gt;MyLibs -->
<g id="edge9" class="edge"><title>openFrameworks&#45;&gt;MyLibs</title>
<path fill="none" stroke="black" d="M71.1607,-360.469C71.3044,-345.233 71.519,-322.487 71.6952,-303.808"/>
<polygon fill="black" stroke="black" points="75.1965,-303.679 71.7911,-293.646 68.1968,-303.613 75.1965,-303.679"/>
<text text-anchor="middle" x="82" y="-331.3" font-family="Times,serif" font-size="14.00">call</text>
</g>
<!-- oFHeaders -->
<g id="node4" class="node"><title>oFHeaders</title>
<polygon fill="#e5e5e5" stroke="none" points="620.5,-175 541.5,-175 541.5,-139 620.5,-139 620.5,-175"/>
<text text-anchor="middle" x="581" y="-153.3" font-family="Times,serif" font-size="14.00">oF Headers</text>
</g>
<!-- openFrameworks&#45;&gt;oFHeaders -->
<g id="edge8" class="edge"><title>openFrameworks&#45;&gt;oFHeaders</title>
<path fill="none" stroke="goldenrod" d="M133.59,-377.102C242.413,-375.183 460.491,-365.521 519,-319.5 550.646,-294.609 566.15,-251.5 573.74,-216.079"/>
<polygon fill="goldenrod" stroke="goldenrod" points="577.258,-216.328 575.764,-205.839 570.391,-214.97 577.258,-216.328"/>
<text text-anchor="middle" x="589.5" y="-266.8" font-family="Times,serif" font-size="14.00" fill="goldenrod">#include</text>
</g>
<!-- DynamicLibs -->
<g id="node3" class="node"><title>DynamicLibs</title>
<polygon fill="none" stroke="black" points="121.5,-175 30.5,-175 30.5,-139 121.5,-139 121.5,-175"/>
<text text-anchor="middle" x="76" y="-153.3" font-family="Times,serif" font-size="14.00">DynamicLibs</text>
</g>
<!-- MyLibs&#45;&gt;DynamicLibs -->
<g id="edge1" class="edge"><title>MyLibs&#45;&gt;DynamicLibs</title>
<path fill="none" stroke="black" d="M72.7903,-247.471C73.4289,-229.669 74.3312,-204.517 75.0166,-185.413"/>
<polygon fill="black" stroke="black" points="78.5208,-185.356 75.3816,-175.237 71.5253,-185.105 78.5208,-185.356"/>
<text text-anchor="middle" x="91" y="-217.8" font-family="Times,serif" font-size="14.00">derive</text>
</g>
<!-- GeneralInterface -->
<g id="node5" class="node"><title>GeneralInterface</title>
<polygon fill="#e5e5e5" stroke="none" points="404,-175 286,-175 286,-139 404,-139 404,-175"/>
<text text-anchor="middle" x="345" y="-153.3" font-family="Times,serif" font-size="14.00">GeneralInterface.h</text>
</g>
<!-- MyLibs&#45;&gt;GeneralInterface -->
<g id="edge3" class="edge"><title>MyLibs:0&#45;&gt;GeneralInterface</title>
<path fill="none" stroke="goldenrod" d="M127,-282.5C206.956,-282.5 284.266,-218.566 321.664,-182.329"/>
<polygon fill="goldenrod" stroke="goldenrod" points="324.375,-184.57 329.024,-175.05 319.453,-179.593 324.375,-184.57"/>
</g>
<!-- StuffL -->
<g id="node9" class="node"><title>StuffL</title>
<polygon fill="none" stroke="black" points="347.525,-26.5442 347.525,-41.4558 316.757,-52 273.243,-52 242.475,-41.4558 242.475,-26.5442 273.243,-16 316.757,-16 347.525,-26.5442"/>
<text text-anchor="middle" x="295" y="-30.3" font-family="Times,serif" font-size="14.00">Stuff.dylib</text>
</g>
<!-- DynamicLibs&#45;&gt;StuffL -->
<g id="edge2" class="edge"><title>DynamicLibs&#45;&gt;StuffL</title>
<path fill="none" stroke="black" d="M119.305,-138.955C151.602,-125.516 196.288,-105.358 233,-83 244.743,-75.8486 256.87,-66.8687 267.251,-58.6162"/>
<polygon fill="black" stroke="black" points="269.598,-61.2193 275.161,-52.2027 265.189,-55.782 269.598,-61.2193"/>
<text text-anchor="middle" x="249" y="-102.3" font-family="Times,serif" font-size="14.00">load &amp; link</text>
</g>
<!-- CameraInterface -->
<g id="node6" class="node"><title>CameraInterface</title>
<polygon fill="#e5e5e5" stroke="none" points="268,-175 150,-175 150,-139 268,-139 268,-175"/>
<text text-anchor="middle" x="209" y="-153.3" font-family="Times,serif" font-size="14.00">CameraInterface.h</text>
</g>
<!-- Stuff -->
<g id="node7" class="node"><title>Stuff</title>
<polygon fill="#e5e5e5" stroke="none" points="506.5,-288.5 439.5,-288.5 439.5,-252.5 506.5,-252.5 506.5,-288.5"/>
<text text-anchor="middle" x="473" y="-266.8" font-family="Times,serif" font-size="14.00">Stuff.cpp</text>
</g>
<!-- Stuff&#45;&gt;oFHeaders -->
<g id="edge5" class="edge"><title>Stuff&#45;&gt;oFHeaders</title>
<path fill="none" stroke="goldenrod" d="M489.875,-252.078C500.154,-241.466 513.911,-227.263 527.615,-213.115"/>
<polygon fill="goldenrod" stroke="goldenrod" points="530.314,-215.359 534.758,-205.741 525.286,-210.489 530.314,-215.359"/>
</g>
<!-- Stuff&#45;&gt;GeneralInterface -->
<g id="edge4" class="edge"><title>Stuff&#45;&gt;GeneralInterface</title>
<path fill="none" stroke="goldenrod" d="M453.281,-252.322C431.607,-233.443 396.644,-202.987 372.333,-181.81"/>
<polygon fill="goldenrod" stroke="goldenrod" points="374.371,-178.943 364.532,-175.014 369.773,-184.222 374.371,-178.943"/>
</g>
<!-- CompileScript -->
<g id="node11" class="node"><title>CompileScript</title>
<polygon fill="steelblue" stroke="none" points="523.5,-175 422.5,-175 422.5,-139 523.5,-139 523.5,-175"/>
<text text-anchor="middle" x="473" y="-153.3" font-family="Times,serif" font-size="14.00" fill="white">compile&#45;libs.sh</text>
</g>
<!-- Stuff&#45;&gt;CompileScript -->
<g id="edge6" class="edge"><title>Stuff&#45;&gt;CompileScript</title>
<path fill="none" stroke="steelblue" d="M473,-244.947C473,-227.356 473,-203.654 473,-185.44"/>
<polygon fill="steelblue" stroke="steelblue" points="476.5,-185.3 473,-175.3 469.5,-185.3 476.5,-185.3"/>
</g>
<!-- Camera -->
<g id="node8" class="node"><title>Camera</title>
<polygon fill="#e5e5e5" stroke="none" points="421.5,-288.5 338.5,-288.5 338.5,-252.5 421.5,-252.5 421.5,-288.5"/>
<text text-anchor="middle" x="380" y="-266.8" font-family="Times,serif" font-size="14.00">Camera.cpp</text>
</g>
<!-- CameraL -->
<g id="node10" class="node"><title>CameraL</title>
<polygon fill="none" stroke="black" points="224.036,-26.5442 224.036,-41.4558 186.524,-52 133.476,-52 95.9644,-41.4558 95.9644,-26.5442 133.476,-16 186.524,-16 224.036,-26.5442"/>
<text text-anchor="middle" x="160" y="-30.3" font-family="Times,serif" font-size="14.00">Camera.dylib</text>
</g>
<!-- CompileScript&#45;&gt;StuffL -->
<g id="edge7" class="edge"><title>CompileScript&#45;&gt;StuffL</title>
<path fill="none" stroke="steelblue" d="M447.874,-138.92C426.121,-124.133 393.607,-102.031 364.15,-82.0068"/>
<polygon fill="steelblue" stroke="steelblue" points="365.768,-78.874 355.53,-76.1467 361.832,-84.6631 365.768,-78.874"/>
<text text-anchor="middle" x="453" y="-109.8" font-family="Times,serif" font-size="14.00" fill="steelblue">continuous</text>
<text text-anchor="middle" x="453" y="-94.8" font-family="Times,serif" font-size="14.00" fill="steelblue">compilation</text>
</g>
</g>
</svg>
