<?xml version="1.0" encoding="UTF-8" standalone="no"?>
<!DOCTYPE svg PUBLIC "-//W3C//DTD SVG 1.1//EN"
 "http://www.w3.org/Graphics/SVG/1.1/DTD/svg11.dtd">
<!-- Generated by graphviz version 2.36.0 (20140111.2315)
 -->
<!-- Title: G Pages: 1 -->
<svg width="698pt" height="435pt"
 viewBox="0.00 0.00 698.00 435.00" xmlns="http://www.w3.org/2000/svg" xmlns:xlink="http://www.w3.org/1999/xlink">
<g id="graph0" class="graph" transform="scale(1 1) rotate(0) translate(4 431)">
<title>G</title>
<polygon fill="white" stroke="none" points="-4,4 -4,-431 694,-431 694,4 -4,4"/>
<g id="clust1" class="cluster"><title>clusterApp</title>
<polygon fill="none" stroke="black" points="8,-128 8,-419 138,-419 138,-128 8,-128"/>
<text text-anchor="middle" x="73" y="-403.8" font-family="Times,serif" font-size="14.00">ofApp</text>
</g>
<g id="clust2" class="cluster"><title>clusteroFHeaders</title>
<polygon fill="none" stroke="steelblue" points="509,-128 509,-202 682,-202 682,-128 509,-128"/>
<text text-anchor="middle" x="595.5" y="-186.8" font-family="Times,serif" font-size="14.00" fill="steelblue">../../../libs/openFrameworks/</text>
</g>
<g id="clust3" class="cluster"><title>clusterIFs</title>
<polygon fill="none" stroke="steelblue" points="146,-128 146,-202 420,-202 420,-128 146,-128"/>
<text text-anchor="middle" x="283" y="-186.8" font-family="Times,serif" font-size="14.00" fill="steelblue">src/DynamicLibs/Interfaces</text>
</g>
<g id="clust4" class="cluster"><title>clusterLibs</title>
<polygon fill="none" stroke="steelblue" points="305,-239 305,-313 490,-313 490,-239 305,-239"/>
<text text-anchor="middle" x="397.5" y="-297.8" font-family="Times,serif" font-size="14.00" fill="steelblue">src/DynamicLibs/Libraries</text>
</g>
<g id="clust5" class="cluster"><title>clusterData</title>
<polygon fill="none" stroke="steelblue" points="110,-8 110,-82 374,-82 374,-8 110,-8"/>
<text text-anchor="middle" x="242" y="-66.8" font-family="Times,serif" font-size="14.00" fill="steelblue">bin/data</text>
</g>
<!-- openFrameworks -->
<g id="node1" class="node"><title>openFrameworks</title>
<polygon fill="none" stroke="black" points="129.4,-389 16.6002,-389 16.6002,-353 129.4,-353 129.4,-389"/>
<text text-anchor="middle" x="73" y="-366.8" font-family="Times,serif" font-size="14.00">openFrameworks</text>
</g>
<!-- MyLibs -->
<g id="node2" class="node"><title>MyLibs</title>
<polygon fill="none" stroke="black" points="21.623,-243 21.623,-287 130.377,-287 130.377,-243 21.623,-243"/>
<text text-anchor="middle" x="51.792" y="-260.8" font-family="Times,serif" font-size="14.00">MyLibs</text>
<polyline fill="none" stroke="black" points="81.9609,-243 81.9609,-287 "/>
<text text-anchor="middle" x="106.169" y="-271.8" font-family="Times,serif" font-size="14.00">*stuff</text>
<polyline fill="none" stroke="black" points="81.9609,-265 130.377,-265 "/>
<text text-anchor="middle" x="106.169" y="-249.8" font-family="Times,serif" font-size="14.00">*cam</text>
</g>
<!-- openFrameworks&#45;&gt;MyLibs -->
<g id="edge8" class="edge"><title>openFrameworks&#45;&gt;MyLibs</title>
<path fill="none" stroke="black" d="M73.4954,-352.827C73.9294,-337.779 74.5712,-315.532 75.0964,-297.324"/>
<polygon fill="black" stroke="black" points="78.5998,-297.252 75.3897,-287.156 71.6028,-297.051 78.5998,-297.252"/>
<text text-anchor="middle" x="87.8276" y="-323.8" font-family="Times,serif" font-size="14.00">calls</text>
</g>
<!-- oFHeaders -->
<g id="node4" class="node"><title>oFHeaders</title>
<polygon fill="#e5e5e5" stroke="none" points="598.111,-172 517.889,-172 517.889,-136 598.111,-136 598.111,-172"/>
<text text-anchor="middle" x="558" y="-149.8" font-family="Times,serif" font-size="14.00">oF Headers</text>
</g>
<!-- openFrameworks&#45;&gt;oFHeaders -->
<g id="edge7" class="edge"><title>openFrameworks&#45;&gt;oFHeaders</title>
<path fill="none" stroke="goldenrod" d="M129.483,-369.207C230.854,-366.695 438.293,-356.257 494,-313 525.414,-288.606 541.483,-246.282 549.661,-211.576"/>
<polygon fill="goldenrod" stroke="goldenrod" points="553.138,-212.062 551.86,-201.545 546.3,-210.564 553.138,-212.062"/>
<text text-anchor="middle" x="565.104" y="-260.8" font-family="Times,serif" font-size="14.00" fill="goldenrod">#include</text>
</g>
<!-- DynamicLibs -->
<g id="node3" class="node"><title>DynamicLibs</title>
<polygon fill="none" stroke="black" points="128.155,-172 35.8446,-172 35.8446,-136 128.155,-136 128.155,-172"/>
<text text-anchor="middle" x="82" y="-149.8" font-family="Times,serif" font-size="14.00">DynamicLibs</text>
</g>
<!-- MyLibs&#45;&gt;DynamicLibs -->
<g id="edge1" class="edge"><title>MyLibs&#45;&gt;DynamicLibs</title>
<path fill="none" stroke="black" d="M77.1569,-242.984C78.1121,-225.63 79.4743,-200.883 80.5109,-182.052"/>
<polygon fill="black" stroke="black" points="84.0083,-182.194 81.0633,-172.016 77.0189,-181.809 84.0083,-182.194"/>
<text text-anchor="middle" x="99.2139" y="-212.8" font-family="Times,serif" font-size="14.00">derives</text>
</g>
<!-- GeneralInterface -->
<g id="node5" class="node"><title>GeneralInterface</title>
<polygon fill="#e5e5e5" stroke="none" points="411.903,-172 292.097,-172 292.097,-136 411.903,-136 411.903,-172"/>
<text text-anchor="middle" x="352" y="-149.8" font-family="Times,serif" font-size="14.00">GeneralInterface.h</text>
</g>
<!-- MyLibs&#45;&gt;GeneralInterface -->
<g id="edge3" class="edge"><title>MyLibs:0&#45;&gt;GeneralInterface</title>
<path fill="none" stroke="goldenrod" d="M131,-276C210.838,-276 289.17,-214.494 327.561,-179.185"/>
<polygon fill="goldenrod" stroke="goldenrod" points="330.236,-181.475 335.133,-172.08 325.446,-176.37 330.236,-181.475"/>
</g>
<!-- StuffL -->
<g id="node9" class="node"><title>StuffL</title>
<polygon fill="none" stroke="black" points="365.478,-26.5442 365.478,-41.4558 335.323,-52 292.677,-52 262.522,-41.4558 262.522,-26.5442 292.677,-16 335.323,-16 365.478,-26.5442"/>
<text text-anchor="middle" x="314" y="-29.8" font-family="Times,serif" font-size="14.00">Stuff.dylib</text>
</g>
<!-- DynamicLibs&#45;&gt;StuffL -->
<g id="edge2" class="edge"><title>DynamicLibs&#45;&gt;StuffL</title>
<path fill="none" stroke="black" d="M122.92,-135.946C172.981,-115.078 251.246,-82.4337 252,-82 263.824,-75.1962 275.969,-66.4453 286.341,-58.3426"/>
<polygon fill="black" stroke="black" points="288.611,-61.0093 294.239,-52.033 284.242,-55.5402 288.611,-61.0093"/>
<text text-anchor="middle" x="252.971" y="-106.8" font-family="Times,serif" font-size="14.00">loads &amp;</text>
<text text-anchor="middle" x="252.971" y="-92.8" font-family="Times,serif" font-size="14.00">links</text>
</g>
<!-- CameraInterface -->
<g id="node6" class="node"><title>CameraInterface</title>
<polygon fill="#e5e5e5" stroke="none" points="273.323,-172 154.677,-172 154.677,-136 273.323,-136 273.323,-172"/>
<text text-anchor="middle" x="214" y="-149.8" font-family="Times,serif" font-size="14.00">CameraInterface.h</text>
</g>
<!-- Stuff -->
<g id="node7" class="node"><title>Stuff</title>
<polygon fill="#e5e5e5" stroke="none" points="481.6,-283 414.4,-283 414.4,-247 481.6,-247 481.6,-283"/>
<text text-anchor="middle" x="448" y="-260.8" font-family="Times,serif" font-size="14.00">Stuff.cpp</text>
</g>
<!-- Stuff&#45;&gt;oFHeaders -->
<g id="edge5" class="edge"><title>Stuff&#45;&gt;oFHeaders</title>
<path fill="none" stroke="goldenrod" d="M465.188,-246.969C475.656,-236.595 489.667,-222.711 503.625,-208.881"/>
<polygon fill="goldenrod" stroke="goldenrod" points="506.26,-211.197 510.9,-201.672 501.333,-206.225 506.26,-211.197"/>
</g>
<!-- Stuff&#45;&gt;GeneralInterface -->
<g id="edge4" class="edge"><title>Stuff&#45;&gt;GeneralInterface</title>
<path fill="none" stroke="goldenrod" d="M433,-246.969C417.171,-228.997 392.064,-200.489 373.996,-179.975"/>
<polygon fill="goldenrod" stroke="goldenrod" points="376.447,-177.463 367.211,-172.271 371.194,-182.089 376.447,-177.463"/>
</g>
<!-- Stuff&#45;&gt;StuffL -->
<g id="edge6" class="edge"><title>Stuff&#45;&gt;StuffL</title>
<path fill="none" stroke="steelblue" d="M448.591,-246.853C448.768,-219.77 445.989,-166.245 424,-128 406.271,-97.1648 374.287,-71.8859 349.361,-55.5074"/>
<polygon fill="steelblue" stroke="steelblue" points="351.186,-52.5202 340.874,-50.0908 347.42,-58.4209 351.186,-52.5202"/>
<text text-anchor="middle" x="471.048" y="-156.8" font-family="Times,serif" font-size="14.00" fill="steelblue">compiled</text>
<text text-anchor="middle" x="471.048" y="-142.8" font-family="Times,serif" font-size="14.00" fill="steelblue">to</text>
</g>
<!-- Camera -->
<g id="node8" class="node"><title>Camera</title>
<polygon fill="#e5e5e5" stroke="none" points="396.433,-283 313.567,-283 313.567,-247 396.433,-247 396.433,-283"/>
<text text-anchor="middle" x="355" y="-260.8" font-family="Times,serif" font-size="14.00">Camera.cpp</text>
</g>
<!-- CameraL -->
<g id="node10" class="node"><title>CameraL</title>
<polygon fill="none" stroke="black" points="243.161,-26.5442 243.161,-41.4558 206.748,-52 155.252,-52 118.839,-41.4558 118.839,-26.5442 155.252,-16 206.748,-16 243.161,-26.5442"/>
<text text-anchor="middle" x="181" y="-29.8" font-family="Times,serif" font-size="14.00">Camera.dylib</text>
</g>
</g>
</svg>
